<svg width="265" height="94" viewBox="0 0 265 94" fill="none" xmlns="http://www.w3.org/2000/svg">
<path d="M69.9977 47.0003C69.9977 62.3623 57.7448 74.8521 42.6678 74.8521C27.6342 74.8521 15.3379 62.3623 15.3379 47.0003C15.3379 31.6383 27.5907 19.1484 42.6678 19.1484C57.7448 19.1484 69.9977 31.6383 69.9977 47.0003ZM65.4789 47.0003C65.4789 34.1623 55.2682 23.7614 42.7112 23.7614C30.1543 23.7614 19.9436 34.1623 19.9436 47.0003C19.9436 59.8383 30.1543 70.2392 42.7112 70.2392C55.2682 70.2392 65.4789 59.8383 65.4789 47.0003Z" fill="#00479A"/>
<path d="M142.776 57.8369C142.776 59.0989 141.733 60.1869 140.516 60.1869H118.835C117.575 60.1869 116.575 59.1425 116.575 57.8369C116.575 56.5749 117.575 55.5304 118.835 55.5304H138.04C136.953 49.8295 132.044 45.5212 126.134 45.5212C119.487 45.5212 114.012 51.048 114.012 57.8369C114.012 64.6258 119.443 70.1962 126.134 70.1962C129.393 70.1962 132.435 68.9341 134.694 66.5406C135.563 65.6267 136.997 65.6267 137.909 66.4971C138.822 67.411 138.822 68.8471 137.953 69.761C134.781 73.0249 130.61 74.8091 126.134 74.8091C116.967 74.8091 109.493 67.1934 109.493 57.8369C109.493 48.5239 116.967 40.9082 126.134 40.9082C135.302 40.9082 142.776 48.5239 142.776 57.8369Z" fill="#00479A"/>
<path d="M179.317 72.3716V72.5457C179.317 73.8077 178.317 74.8521 177.057 74.8521C175.797 74.8521 174.798 73.8512 174.798 72.5457V72.3716C174.798 62.5364 166.933 54.529 157.331 54.529H154.246C152.986 54.529 151.987 53.4845 151.987 52.2225C151.987 50.9605 152.986 49.8725 154.246 49.8725H161.676C168.932 49.8725 174.798 43.9105 174.798 36.5123C174.798 29.4623 169.149 23.7179 162.284 23.7179H150.423V72.5021C150.423 73.7642 149.423 74.8086 148.163 74.8086C146.903 74.8086 145.86 73.8077 145.86 72.5021V21.4984C145.86 20.2364 146.903 19.1484 148.163 19.1484H162.241C171.669 19.1484 179.273 26.9383 179.273 36.5558C179.273 43.954 174.841 50.3512 168.585 53.0929C175.015 57.0095 179.317 64.1901 179.317 72.3716Z" fill="#4284F3"/>
<path d="M215.685 57.8369C215.685 59.0989 214.642 60.1869 213.425 60.1869H191.744C190.484 60.1869 189.485 59.1425 189.485 57.8369C189.485 56.5749 190.484 55.5304 191.744 55.5304H210.949C209.863 49.8295 204.953 45.5212 199.044 45.5212C192.396 45.5212 186.921 51.048 186.921 57.8369C186.921 64.6258 192.352 70.1962 199.044 70.1962C202.302 70.1962 205.344 68.9341 207.603 66.5406C208.472 65.6267 209.906 65.6267 210.818 66.4971C211.731 67.411 211.731 68.8471 210.862 69.761C207.69 73.0249 203.519 74.8091 199.044 74.8091C189.876 74.8091 182.402 67.1934 182.402 57.8369C182.402 48.5239 189.876 40.9082 199.044 40.9082C208.212 40.9082 215.685 48.5239 215.685 57.8369Z" fill="#4284F3"/>
<path d="M249.272 67.2804C246.143 71.9804 241.016 74.8091 235.455 74.8091C226.287 74.8091 218.813 67.1934 218.813 57.8369C218.813 48.5239 226.287 40.9082 235.455 40.9082C241.016 40.9082 246.143 43.6934 249.272 48.4369C249.967 49.4814 249.663 50.9175 248.62 51.6138C247.577 52.3101 246.187 52.0489 245.492 51.0045C243.232 47.5665 239.452 45.5212 235.455 45.5212C228.807 45.5212 223.332 51.048 223.332 57.8369C223.332 64.6258 228.763 70.1962 235.455 70.1962C239.496 70.1962 243.276 68.1508 245.492 64.7128C246.187 63.6684 247.577 63.3638 248.62 64.1036C249.663 64.7999 249.967 66.236 249.272 67.2804Z" fill="#4284F3"/>
<path d="M84.9443 60.9692C84.9443 61.709 85.5526 62.3183 86.2913 62.3183H88.3769V64.4507C88.3769 65.1905 88.9852 65.7998 89.7238 65.7998H89.8542C90.5928 65.7998 91.2011 65.1905 91.2011 64.4507V62.3183H93.2432C93.9819 62.3183 94.5902 61.709 94.5902 60.9692C94.5902 60.2294 93.9819 59.6202 93.2432 59.6202H91.2011V57.4877C91.2011 56.7479 90.5928 56.1387 89.8542 56.1387H89.7238C88.9852 56.1387 88.3769 56.7479 88.3769 57.4877V59.6202H86.2913C85.5526 59.6202 84.9443 60.2294 84.9443 60.9692Z" fill="#00479A"/>
<path d="M75.9062 44.6073V71.8499C75.9062 73.373 77.0359 74.8091 78.5567 74.8091C80.5554 74.8091 80.3816 72.7638 80.3816 71.9369V44.9989H94.7634V49.1767H99.4995V71.8499C99.4995 73.4601 99.3257 74.8091 100.76 74.8091C101.542 74.8091 102.237 74.5045 102.758 73.9823C103.28 73.46 103.584 72.7638 103.584 71.9369V49.1767C100.368 45.9564 98.5436 44.1286 95.3283 40.9082H79.5995C77.5573 40.9082 75.9062 42.5619 75.9062 44.6073Z" fill="#00479A"/>
</svg>
